<?xml version="1.0" encoding="UTF-8"?>
<svg id="Camada_1" data-name="Camada 1" xmlns="http://www.w3.org/2000/svg" viewBox="0 0 375.98 396">
  <defs>
    <style>
      .cls-1 {
        fill: #ee7276;
      }

      .cls-2 {
        fill: #36a5b6;
      }
    </style>
  </defs>
  <path class="cls-1" d="M201.02,151.21c.96,0,1.9.09,2.85.14v-26.38c-.95-.04-1.89-.07-2.85-.07-5.04,0-9.97.52-14.72,1.49v-52.97l1.51-.08c1.37-.07,2.76-.08,4.14-.11V6.96c-1.35.02-2.7.03-4.04.08-2.51,5.29-4.88,12.55-7.17,19.59-1.67,5.11-3.39,10.39-5.16,14.88l-.35.88-.94.12c-7.47.95-14.89,2.42-22.05,4.38l-.91.25-.66-.67c-3.5-3.6-7.27-8-10.91-12.26-4.66-5.45-9.47-11.07-13.65-14.9-3.87,1.46-7.83,3.12-12.04,5.04-.26,5.77.32,13.29.89,20.57.43,5.45.87,11.08.95,15.98l.02.94-.82.47c-6.52,3.74-12.82,7.95-18.71,12.53l-.74.58-.87-.37c-4.55-1.96-9.64-4.54-14.57-7.04-6.46-3.28-13.13-6.66-18.52-8.61-3.16,2.96-6.26,6.05-9.22,9.22,1.94,5.39,5.33,12.05,8.6,18.51,2.5,4.93,5.09,10.03,7.05,14.59l.37.86-.58.74c-4.59,5.92-8.8,12.21-12.52,18.71l-.47.82-.94-.02c-4.91-.08-10.55-.52-16.01-.95-7.27-.57-14.78-1.16-20.55-.89-1.93,4.23-3.58,8.18-5.03,12.04,3.83,4.18,9.45,8.99,14.9,13.65,4.26,3.64,8.66,7.41,12.26,10.92l.67.66-.25.91c-1.96,7.16-3.43,14.58-4.38,22.06l-.12.94-.88.35c-4.48,1.77-9.77,3.49-14.88,5.16-7.04,2.29-14.3,4.66-19.58,7.17-.08,2.22-.16,4.44-.16,6.68s.07,4.46.16,6.68c5.29,2.51,12.54,4.88,19.58,7.17,5.11,1.67,10.4,3.39,14.89,5.16l.88.35.12.94c.94,7.47,2.42,14.89,4.38,22.05l.25.91-.67.66c-3.6,3.51-8,7.27-12.26,10.92-5.44,4.66-11.07,9.47-14.9,13.65,1.47,3.89,3.12,7.84,5.04,12.04,5.77.26,13.29-.32,20.56-.89,5.45-.43,11.09-.87,15.99-.95l.94-.02.47.82c3.71,6.49,7.93,12.78,12.52,18.71l.58.74-.37.86c-1.96,4.55-4.55,9.65-7.05,14.58-3.28,6.46-6.66,13.12-8.6,18.51,2.96,3.17,6.06,6.26,9.22,9.22,5.39-1.94,12.06-5.32,18.52-8.6,4.93-2.5,10.02-5.08,14.58-7.04l.86-.37.74.58c5.92,4.59,12.21,8.8,18.71,12.52l.82.47-.02.94c-.08,4.9-.53,10.54-.95,15.98-.57,7.28-1.16,14.8-.89,20.57,4.21,1.92,8.17,3.58,12.04,5.04,4.18-3.83,8.98-9.45,13.64-14.9,3.64-4.26,7.41-8.66,10.92-12.26l.66-.67.91.25c7.16,1.96,14.58,3.43,22.05,4.38l.94.12.35.88c1.77,4.49,3.5,9.78,5.17,14.9,2.3,7.03,4.66,14.29,7.17,19.57,1.34.05,2.69.06,4.04.08v-66.28c-1.36-.03-2.73-.04-4.08-.11l-1.51-.08v-60.66c4.74.97,9.64,1.48,14.67,1.48.96,0,1.9-.04,2.85-.07v-26.38c-.95.06-1.89.14-2.85.14-25.64,0-46.42-20.79-46.42-46.42s20.79-46.42,46.42-46.42ZM80.25,143.3c2.06-4.04,4.33-7.97,6.76-11.71l.82-1.27,51.06,29.48c-2.87,4.7-5.2,9.76-6.96,15.08l-52.38-30.24.69-1.35ZM76.46,251.63c-6.75-15.89-10.17-32.76-10.17-50.15s3.41-34.23,10.15-50.09l.7-1.66,53.21,30.72c-1.34,5.51-2.06,11.26-2.06,17.18,0,8.35,1.42,16.36,4.01,23.82l-55.14,31.84-.7-1.66ZM87.05,271.42c-2.42-3.72-4.7-7.66-6.77-11.71l-.69-1.35,54.78-31.63c2.23,5.1,5.02,9.9,8.3,14.31l-54.8,31.64-.82-1.27ZM180.75,267.47v61.56l-1.79-.22c-34.27-4.17-65.9-22.42-86.79-50.06l-1.09-1.44,55.18-31.86c9.04,10.34,20.94,18.09,34.49,22.02ZM142.02,155.13l-50.98-29.43,1.09-1.44c20.88-27.66,52.51-45.92,86.77-50.1l1.79-.22v53.86c-15.76,4.58-29.3,14.34-38.67,27.33Z"/>
  <path class="cls-2" d="M368.99,278.83l-31.38-18.12,22.49-4.01c7.6-1.35,12.66-8.61,11.31-16.21-1.35-7.6-8.61-12.66-16.21-11.31l-55.17,9.83-28.69-16.57c2.83-7.79,4.31-16.06,4.31-24.44,0-7.26-1.13-14.47-3.28-21.35l27.65-15.96,55.18,9.83c.83.15,1.65.22,2.47.22,6.64,0,12.54-4.76,13.74-11.53,1.35-7.6-3.71-14.86-11.31-16.21l-22.51-4.01,31.4-18.13c6.69-3.86,8.98-12.41,5.12-19.09-3.86-6.69-12.41-8.97-19.09-5.12l-31.39,18.13,7.78-21.49c2.63-7.26-1.13-15.27-8.38-17.9-7.25-2.63-15.27,1.13-17.9,8.38l-19.08,52.7-27.09,15.64c-10.43-12.45-24.81-20.96-40.74-24.14v-34.37l36.1-42.87c4.97-5.91,4.22-14.72-1.69-19.69-5.9-4.97-14.72-4.22-19.69,1.69l-14.72,17.48V13.98c0-7.72-6.26-13.98-13.98-13.98s-13.98,6.26-13.98,13.98v74.3c0,.09,0,.17,0,.26v218.94c0,.09,0,.17,0,.26v74.29c0,7.72,6.26,13.98,13.98,13.98s13.98-6.26,13.98-13.98v-36.24l14.72,17.48c2.76,3.28,6.72,4.97,10.7,4.97,3.18,0,6.37-1.08,9-3.29,5.9-4.97,6.66-13.79,1.69-19.69l-36.1-42.87v-34.33c14.88-2.93,28.35-10.5,38.61-21.72l29.21,16.87,19.08,52.72c2.06,5.69,7.42,9.22,13.14,9.22,1.58,0,3.19-.27,4.76-.84,7.26-2.63,11.01-10.64,8.38-17.9l-7.78-21.5,31.4,18.13c2.2,1.27,4.6,1.87,6.98,1.87,4.83,0,9.53-2.51,12.12-6.99,3.86-6.68,1.57-15.23-5.12-19.09ZM218.21,239.19v-82.32c10.21,3.47,18.95,10.68,24.26,20.49,3.46,6.37,5.22,13.31,5.22,20.64,0,8.06-2.22,15.94-6.41,22.76-5.45,8.84-13.62,15.24-23.07,18.43Z"/>
</svg>